<svg width="34" height="34" viewBox="0 0 34 34" fill="none" xmlns="http://www.w3.org/2000/svg">
<path d="M12.3932 10.3205C14.5781 10.3205 16.3775 11.9913 16.3775 14.0478C16.3775 16.1042 14.5781 17.775 12.3932 17.775C10.2082 17.775 8.47313 16.1042 8.47313 14.0478C8.47313 11.9913 10.2082 10.3205 12.3932 10.3205ZM21.6471 10.3205C23.832 10.3205 25.5671 11.9913 25.5671 14.0478C25.5671 16.1042 23.832 17.775 21.6471 17.775C19.4621 17.775 17.6628 16.1042 17.6628 14.0478C17.6628 11.9913 19.4621 10.3205 21.6471 10.3205ZM31.6721 16.1042C32.6361 15.4616 33.2787 16.3612 32.7003 17.2609C31.5436 18.739 29.2944 20.4741 25.8884 21.8879C29.4872 34.2264 17.0844 36.1543 17.2772 29.8565C17.2772 29.7922 17.2129 26.3863 17.2129 23.8158C16.9559 23.8158 16.6988 23.6872 16.3775 23.623C16.3775 26.1935 16.3132 29.7922 16.3132 29.8565C16.5703 36.1543 4.10324 34.2264 7.70197 21.8879C4.29603 20.4741 2.04682 18.6747 0.890082 17.2609C0.311713 16.3612 0.954345 15.4616 1.91829 16.1042C2.04682 16.2327 2.17534 16.297 2.30387 16.3612V3.63714C2.30387 1.90203 3.6534 0.423979 5.25998 0.423979H28.3304C30.0013 0.423979 31.2865 1.90203 31.2865 3.63714V16.3612L31.6721 16.1042ZM29.7442 17.3252V5.11519C29.7442 2.9945 29.0373 2.15908 27.1094 2.15908H6.67376C4.68161 2.15908 4.10324 2.86598 4.10324 5.11519V17.4537C8.40887 19.7672 12.1361 19.3173 14.1926 19.2531C15.028 19.2531 15.6063 19.3816 15.9277 19.7672C16.0562 19.8314 16.5703 20.3456 17.2129 20.8597C17.3414 19.8314 17.8556 19.1888 19.3979 19.2531C21.4543 19.3173 25.3101 19.7672 29.7442 17.3252Z" fill="white"/>
</svg>
