<svg width="34" height="39" viewBox="0 0 34 39" fill="none" xmlns="http://www.w3.org/2000/svg">
<path d="M33.8232 26.9713C33.8232 27.5669 33.5254 28.0881 33.1531 28.386C32.7808 29.5028 32.7808 32.7789 33.1531 33.9702C33.5254 34.268 33.8232 34.7892 33.8232 35.3104V36.5017C33.8232 37.5441 33.0042 38.2886 32.0363 38.2886H7.6146C3.66842 38.2886 0.466797 35.087 0.466797 31.1408V7.31483C0.466797 3.36864 3.66842 0.167023 7.6146 0.167023H32.0363C33.0042 0.167023 33.8232 0.986042 33.8232 1.95397V26.9713ZM9.9972 10.1442V11.6333C9.9972 11.9311 10.1461 12.08 10.4439 12.08H26.2287C26.452 12.08 26.6754 11.9311 26.6754 11.6333V10.1442C26.6754 9.9208 26.452 9.69743 26.2287 9.69743H10.4439C10.1461 9.69743 9.9972 9.9208 9.9972 10.1442ZM9.9972 14.9094V16.3985C9.9972 16.6963 10.1461 16.8452 10.4439 16.8452H26.2287C26.452 16.8452 26.6754 16.6963 26.6754 16.3985V14.9094C26.6754 14.686 26.452 14.4626 26.2287 14.4626H10.4439C10.1461 14.4626 9.9972 14.686 9.9972 14.9094ZM28.8346 33.5234C28.6857 32.2577 28.6857 30.0984 28.8346 28.7582H7.6146C6.27439 28.7582 5.232 29.8751 5.232 31.1408C5.232 32.481 6.27439 33.5234 7.6146 33.5234H28.8346Z" fill="white"/>
</svg>
