<svg width="35" height="35" viewBox="0 0 35 35" fill="none" xmlns="http://www.w3.org/2000/svg">
<g clip-path="url(#clip0_1108_2357)">
<path d="M8.87322 0.383789C8.198 0.383789 7.65063 0.931149 7.65063 1.60638V4.05148H10.0957V1.60638C10.0957 0.931149 9.54838 0.383789 8.87322 0.383789Z" fill="#F5F5FC"/>
<path d="M25.9891 0.383789C25.3138 0.383789 24.7665 0.931149 24.7665 1.60638V4.05148H27.2116V1.60638C27.2117 0.931149 26.6643 0.383789 25.9891 0.383789Z" fill="#F5F5FC"/>
<path d="M30.8794 4.05127H27.2117V8.94155C27.2117 9.61678 26.6644 10.1641 25.9892 10.1641C25.3139 10.1641 24.7666 9.61678 24.7666 8.94155V4.05127H10.0958V8.94155C10.0958 9.61678 9.54844 10.1641 8.87321 10.1641C8.19798 10.1641 7.65062 9.61678 7.65062 8.94155V4.05127H3.983C1.95739 4.05127 0.315308 5.69335 0.315308 7.71896V30.9477C0.315308 32.9733 1.95739 34.6154 3.983 34.6154H30.8794C32.9051 34.6154 34.5471 32.9733 34.5471 30.9477V7.71896C34.5471 5.69335 32.9051 4.05127 30.8794 4.05127ZM32.102 30.9477C32.102 31.6229 31.5546 32.1703 30.8794 32.1703H3.983C3.30777 32.1703 2.76041 31.6229 2.76041 30.9477V15.0543H32.102V30.9477Z" fill="#F5F5FC"/>
<path d="M10.0957 17.4995H7.65057C6.97534 17.4995 6.42798 18.0469 6.42798 18.7221C6.42798 19.3973 6.97534 19.9447 7.65057 19.9447H10.0957C10.7709 19.9447 11.3183 19.3973 11.3183 18.7221C11.3183 18.0469 10.7709 17.4995 10.0957 17.4995Z" fill="#F5F5FC"/>
<path d="M18.6538 17.4995H16.2087C15.5334 17.4995 14.9861 18.0469 14.9861 18.7221C14.9861 19.3973 15.5334 19.9447 16.2087 19.9447H18.6538C19.329 19.9447 19.8764 19.3973 19.8764 18.7221C19.8764 18.0469 19.329 17.4995 18.6538 17.4995Z" fill="#F5F5FC"/>
<path d="M27.2118 17.4995H24.7667C24.0914 17.4995 23.5441 18.0469 23.5441 18.7221C23.5441 19.3973 24.0914 19.9447 24.7667 19.9447H27.2118C27.887 19.9447 28.4343 19.3973 28.4343 18.7221C28.4343 18.0469 27.8869 17.4995 27.2118 17.4995Z" fill="#F5F5FC"/>
<path d="M10.0957 22.3896H7.65057C6.97534 22.3896 6.42798 22.937 6.42798 23.6122C6.42798 24.2875 6.97534 24.8348 7.65057 24.8348H10.0957C10.7709 24.8348 11.3183 24.2875 11.3183 23.6122C11.3183 22.937 10.7709 22.3896 10.0957 22.3896Z" fill="#F5F5FC"/>
<path d="M18.6538 22.3896H16.2087C15.5334 22.3896 14.9861 22.937 14.9861 23.6122C14.9861 24.2875 15.5334 24.8348 16.2087 24.8348H18.6538C19.329 24.8348 19.8764 24.2875 19.8764 23.6122C19.8764 22.937 19.329 22.3896 18.6538 22.3896Z" fill="#F5F5FC"/>
<path d="M27.2118 22.3896H24.7667C24.0914 22.3896 23.5441 22.937 23.5441 23.6122C23.5441 24.2875 24.0914 24.8348 24.7667 24.8348H27.2118C27.887 24.8348 28.4343 24.2875 28.4343 23.6122C28.4343 22.937 27.8869 22.3896 27.2118 22.3896Z" fill="#F5F5FC"/>
<path d="M10.0957 27.2803H7.65057C6.97534 27.2803 6.42798 27.8276 6.42798 28.5029C6.42798 29.1781 6.97534 29.7254 7.65057 29.7254H10.0957C10.7709 29.7254 11.3183 29.178 11.3183 28.5028C11.3183 27.8276 10.7709 27.2803 10.0957 27.2803Z" fill="#F5F5FC"/>
<path d="M18.6538 27.2803H16.2087C15.5334 27.2803 14.9861 27.8276 14.9861 28.5029C14.9861 29.1781 15.5334 29.7254 16.2087 29.7254H18.6538C19.329 29.7254 19.8764 29.1781 19.8764 28.5029C19.8764 27.8276 19.329 27.2803 18.6538 27.2803Z" fill="#F5F5FC"/>
<path d="M27.2118 27.2803H24.7667C24.0914 27.2803 23.5441 27.8276 23.5441 28.5029C23.5441 29.1781 24.0914 29.7254 24.7667 29.7254H27.2118C27.887 29.7254 28.4343 29.1781 28.4343 28.5029C28.4343 27.8276 27.8869 27.2803 27.2118 27.2803Z" fill="#F5F5FC"/>
</g>
<defs>
<clipPath id="clip0_1108_2357">
<rect width="34.2318" height="34.2318" fill="white" transform="translate(0.315308 0.383789)"/>
</clipPath>
</defs>
</svg>
